<svg xmlns="http://www.w3.org/2000/svg" width="119.328" height="24.683" viewBox="0 0 119.328 24.683">
  <g id="Grupo_3" data-name="Grupo 3" transform="translate(-19.986 -2125.356)">
    <path id="Trazado_1" data-name="Trazado 1" d="M31.715,2135.113a2.635,2.635,0,0,1-.279-.618s-.592-1.934-.6-2.09-.5-.793-.218-1.281a1.99,1.99,0,0,0,.279-1.132c.009-.348-.1-.383-.3-.583a1.316,1.316,0,0,0-.775-.209,1.932,1.932,0,0,1-.418-.288s.1-.034.1-.3.166-.392.175-.61a1.406,1.406,0,0,1,.034-.435,1.776,1.776,0,0,0,.122-.5c-.008-.1.2-.261.2-.261a1.148,1.148,0,0,0-.026-.47c-.07-.227-.323-.392-.392-.471a2.724,2.724,0,0,0-.889-.435,2.908,2.908,0,0,0-.914-.061,1,1,0,0,0-.723.366,1.905,1.905,0,0,0-.418,1.245,3.11,3.11,0,0,0,.322,1.228.856.856,0,0,1,.061.209,1.807,1.807,0,0,0-.564.217,5.957,5.957,0,0,0-.817.314c-.063.084-.552.1-.664.118a4.331,4.331,0,0,0-.649.538,5.6,5.6,0,0,0-.789.628,2.4,2.4,0,0,1-.593.405s-.7.531-.768.58a2.5,2.5,0,0,0-.6.859,9.345,9.345,0,0,0,0,1.18c.021.055.154,1.41.154,1.515a4.72,4.72,0,0,0-.14.754c.014.251.37.328.447.384a.592.592,0,0,0,.231.069.175.175,0,0,0,.167.147c.147.007.217-.175.23-.147s.1.2.217.168.14-.384.14-.384-.042-.461.041-.3.5.209.468.223a5.215,5.215,0,0,0-.363.873,5.194,5.194,0,0,1-.335.873,1.711,1.711,0,0,0-.2.816c-.273.629-.329,1.585-.573,2.381a1.941,1.941,0,0,0-.335,1.048.882.882,0,0,0,.126.621.269.269,0,0,1,.035.2,2.43,2.43,0,0,0-.007.615c.041.16.251.091.251.223a2.921,2.921,0,0,0,.042.747,7.842,7.842,0,0,1-1.369,1.068c-.111.042-.223.042-.279.168a1.027,1.027,0,0,1-.377.356c-.126.07-.1.2-.1.314a.38.38,0,0,1-.1.217s.062.125.1.125.133-.083.175-.083.07.042.07.146-.119.154-.119.154,0,.2.154.077.237-.021.307-.021a2.574,2.574,0,0,1,.628.537c.007.063-.014.133.028.161s.1-.035.14-.049.132.042.132.077.119,0,.14-.042a1.156,1.156,0,0,1,.342-.126.513.513,0,0,0,.2-.342.843.843,0,0,0-.14-.384.631.631,0,0,0,.133-.23c.007-.084-.1-.14-.021-.14a2.568,2.568,0,0,0,.363-.049c.056-.014.244-.084.244-.209s-.021-.14-.021-.14-.391.119-.4-.063.419-.405.5-.433,1.7-1.026,1.85-1.145.691-.837.789-.935.258-.307.377-.426.321-.056.635-.4a2.674,2.674,0,0,0,.426-.642,2.7,2.7,0,0,1,.461-.426,3.432,3.432,0,0,0,.765-2.1s.138.2.142-.009a1.3,1.3,0,0,1,.043-.518c.078-.262-.029-.107-.071-.284.007-.339.156-.092.276-.158a.48.48,0,0,0,.191-.444,2.273,2.273,0,0,0,.018-.558,4.284,4.284,0,0,0-.1-.452c-.026-.07-.209-.07-.139-.279a1.182,1.182,0,0,1,.148-.314.482.482,0,0,0,.217-.383c.018-.27.157-.409.14-.548s.4-.985.453-1.2.183-.845.183-.845.7,1.028.87,1.3a1.242,1.242,0,0,1,.131.9c-.043.348.235.592.305.714a.465.465,0,0,1,.07.209s-.192-.1-.253.008.113.148.113.148-.026.079-.009.1a.8.8,0,0,0,.3.1c.079,0,.1.1.148.1s.035-.148.035-.148.157.079.209-.026.279-.5.349-.61S31.8,2135.165,31.715,2135.113Zm-9-.592a4.031,4.031,0,0,1,.071-1.162,5.237,5.237,0,0,1,.215-1.032c.077-.1.824-.318.882-.441s.695-.28.695-.28.084.591.11,1.033a6.61,6.61,0,0,1-.117,1.233c-.006.019-.077.214-.155.227s-.221.02-.26.143-.214.1-.1.331a.336.336,0,0,1,.007.357l-.422.467A3.066,3.066,0,0,1,22.711,2134.521Zm2.312,6.431a1.9,1.9,0,0,0-.222.612.288.288,0,0,1-.2.287,1.328,1.328,0,0,0-.479.21,1.359,1.359,0,0,1-.45.318s.084-.36.108-.486a4.62,4.62,0,0,1,.036-.5,9.084,9.084,0,0,1,.576-1.229,8.438,8.438,0,0,0,.635-.785c.018-.06.024.929.036.971A2.384,2.384,0,0,1,25.023,2140.952Z" fill="#fff"/>
    <circle id="Elipse_1" data-name="Elipse 1" cx="1.605" cy="1.605" r="1.605" transform="translate(26.643 2144.111)" fill="#fff"/>
    <g id="Grupo_2" data-name="Grupo 2">
      <path id="Trazado_2" data-name="Trazado 2" d="M39.3,2132.616h2.67v13.543H39.3Z" fill="#fff"/>
      <path id="Trazado_3" data-name="Trazado 3" d="M51.59,2137.279a4.015,4.015,0,0,1,1.045,2.941v5.939h-2.5v-5.63a1.792,1.792,0,0,0-1.915-1.993c-1.3,0-2.129.794-2.129,2.4v5.224H43.6v-9.674h2.5v1.084a3.2,3.2,0,0,1,2.883-1.354A3.426,3.426,0,0,1,51.59,2137.279Z" fill="#fff"/>
      <path id="Trazado_4" data-name="Trazado 4" d="M59.911,2138.885H57.724v4.024c0,1.045.755,1.064,2.187.987v2.263c-3.425.387-4.682-.6-4.682-3.25v-4.024H53.545v-2.4h1.684v-1.954l2.495-.754v2.708h2.187Z" fill="#fff"/>
      <path id="Trazado_5" data-name="Trazado 5" d="M63.549,2142.348a2.463,2.463,0,0,0,2.727,1.818,2.568,2.568,0,0,0,2.167-.967l2.013,1.161a4.807,4.807,0,0,1-4.218,2.07,5.194,5.194,0,0,1-3.85-1.451,5.336,5.336,0,0,1-.02-7.294,4.881,4.881,0,0,1,3.676-1.47,4.557,4.557,0,0,1,3.5,1.47,5.084,5.084,0,0,1,1.393,3.637,6.544,6.544,0,0,1-.1,1.026Zm4.894-1.935a2.337,2.337,0,0,0-2.4-1.954,2.412,2.412,0,0,0-2.534,1.954Z" fill="#fff"/>
      <path id="Trazado_6" data-name="Trazado 6" d="M74.4,2138.149a2.968,2.968,0,0,1,2.941-1.857v2.786a2.908,2.908,0,0,0-2.051.464,2.221,2.221,0,0,0-.89,1.993v4.624h-2.5v-9.674h2.5Z" fill="#fff"/>
      <path id="Trazado_7" data-name="Trazado 7" d="M84.711,2132.616A4.54,4.54,0,0,1,88,2133.932a4.578,4.578,0,0,1,0,6.462,4.543,4.543,0,0,1-3.289,1.315h-2.38v4.45h-2.67v-13.543Zm0,6.6a2.052,2.052,0,0,0,0-4.1h-2.38v4.1Z" fill="#fff"/>
      <path id="Trazado_8" data-name="Trazado 8" d="M90.187,2146.159v-14.123h2.5v14.123Z" fill="#fff"/>
      <path id="Trazado_9" data-name="Trazado 9" d="M101.544,2136.485h2.5v9.674h-2.5v-1.141a3.787,3.787,0,0,1-3.153,1.412,4.4,4.4,0,0,1-3.328-1.47,5.477,5.477,0,0,1,0-7.256,4.415,4.415,0,0,1,3.328-1.489,3.787,3.787,0,0,1,3.153,1.412Zm-2.689,7.565a2.593,2.593,0,0,0,1.915-.754,2.666,2.666,0,0,0,.774-1.974,2.593,2.593,0,0,0-.774-1.954,2.756,2.756,0,0,0-3.83,0,2.655,2.655,0,0,0-.755,1.954,2.732,2.732,0,0,0,.755,1.974A2.593,2.593,0,0,0,98.855,2144.05Z" fill="#fff"/>
      <path id="Trazado_10" data-name="Trazado 10" d="M112.032,2136.485h2.67l-3.522,9.674c-1.006,2.786-2.631,4.005-5.107,3.87v-2.322a2.366,2.366,0,0,0,2.534-1.857l-3.966-9.365h2.728l2.515,6.5Z" fill="#fff"/>
      <path id="Trazado_11" data-name="Trazado 11" d="M117.217,2142.348a2.465,2.465,0,0,0,2.729,1.818,2.566,2.566,0,0,0,2.166-.967l2.013,1.161a4.806,4.806,0,0,1-4.218,2.07,5.194,5.194,0,0,1-3.85-1.451,5.336,5.336,0,0,1-.02-7.294,4.882,4.882,0,0,1,3.676-1.47,4.557,4.557,0,0,1,3.5,1.47,5.084,5.084,0,0,1,1.393,3.637,6.544,6.544,0,0,1-.1,1.026Zm4.895-1.935a2.337,2.337,0,0,0-2.4-1.954,2.412,2.412,0,0,0-2.534,1.954Z" fill="#fff"/>
      <path id="Trazado_12" data-name="Trazado 12" d="M128.072,2138.149a2.967,2.967,0,0,1,2.941-1.857v2.786a2.908,2.908,0,0,0-2.051.464,2.221,2.221,0,0,0-.89,1.993v4.624h-2.5v-9.674h2.5Z" fill="#fff"/>
      <path id="Trazado_13" data-name="Trazado 13" d="M136.083,2140.3c1.412.29,3.25.967,3.231,3.037a2.669,2.669,0,0,1-1.122,2.3,4.681,4.681,0,0,1-2.767.793,4.068,4.068,0,0,1-4.063-2.3l2.167-1.219a1.8,1.8,0,0,0,1.9,1.257c.89,0,1.335-.27,1.335-.832,0-.522-.774-.812-1.761-1.064-1.431-.367-3.231-.967-3.231-2.979a2.691,2.691,0,0,1,1.045-2.244,4.414,4.414,0,0,1,6.307,1.218l-2.128,1.161a1.6,1.6,0,0,0-1.548-.986c-.638,0-1.122.309-1.122.793C134.322,2139.755,135.1,2140.045,136.083,2140.3Z" fill="#fff"/>
      <rect id="Rect치ngulo_5" data-name="Rect치ngulo 5" width="3.128" height="2.659" transform="translate(37.352 2132.622)" fill="#fff"/>
      <rect id="Rect치ngulo_6" data-name="Rect치ngulo 6" width="3.128" height="2.659" transform="translate(77.771 2132.622)" fill="#fff"/>
    </g>
  </g>
</svg>
