<svg xmlns="http://www.w3.org/2000/svg" width="119.519" height="17.784" viewBox="0 0 119.519 17.784">
  <g id="Grupo_59" data-name="Grupo 59" transform="translate(-19.986 -97.965)">
    <g id="Grupo_57" data-name="Grupo 57">
      <g id="Grupo_43" data-name="Grupo 43">
        <path id="Trazado_403" data-name="Trazado 403" d="M40.718,98.539h2.637v13.377H40.718Z" fill="#fff"/>
      </g>
      <g id="Grupo_44" data-name="Grupo 44">
        <path id="Trazado_404" data-name="Trazado 404" d="M52.853,103.144a3.969,3.969,0,0,1,1.033,2.905v5.867H51.42v-5.561a1.77,1.77,0,0,0-1.892-1.968c-1.28,0-2.1.783-2.1,2.369v5.16H44.961v-9.555h2.465v1.07a3.162,3.162,0,0,1,2.848-1.338A3.383,3.383,0,0,1,52.853,103.144Z" fill="#fff"/>
      </g>
      <g id="Grupo_45" data-name="Grupo 45">
        <path id="Trazado_405" data-name="Trazado 405" d="M61.072,104.731H58.913v3.975c0,1.032.745,1.051,2.159.974v2.236c-3.382.383-4.625-.592-4.625-3.21v-3.975H54.785v-2.37h1.662v-1.93l2.466-.746v2.676h2.159Z" fill="#fff"/>
      </g>
      <g id="Grupo_46" data-name="Grupo 46">
        <path id="Trazado_406" data-name="Trazado 406" d="M64.666,108.151a2.434,2.434,0,0,0,2.694,1.8,2.538,2.538,0,0,0,2.141-.956l1.987,1.147a4.746,4.746,0,0,1-4.166,2.045,5.133,5.133,0,0,1-3.8-1.433,5.27,5.27,0,0,1-.019-7.205,4.821,4.821,0,0,1,3.631-1.453,4.5,4.5,0,0,1,3.459,1.453,5.023,5.023,0,0,1,1.376,3.593,6.488,6.488,0,0,1-.1,1.012ZM69.5,106.24a2.31,2.31,0,0,0-2.37-1.93,2.383,2.383,0,0,0-2.5,1.93Z" fill="#fff"/>
      </g>
      <g id="Grupo_47" data-name="Grupo 47">
        <path id="Trazado_407" data-name="Trazado 407" d="M75.388,104a2.93,2.93,0,0,1,2.9-1.834v2.752a2.869,2.869,0,0,0-2.026.458,2.193,2.193,0,0,0-.879,1.969v4.567H72.923v-9.555h2.465Z" fill="#fff"/>
      </g>
      <g id="Grupo_48" data-name="Grupo 48">
        <path id="Trazado_408" data-name="Trazado 408" d="M85.569,98.539a4.483,4.483,0,0,1,3.249,1.3,4.521,4.521,0,0,1,0,6.383,4.484,4.484,0,0,1-3.249,1.3h-2.35v4.395H80.581V98.539Zm0,6.516a2.027,2.027,0,0,0,0-4.051h-2.35v4.051Z" fill="#fff"/>
      </g>
      <g id="Grupo_49" data-name="Grupo 49">
        <path id="Trazado_409" data-name="Trazado 409" d="M90.979,111.916V97.965h2.465v13.951Z" fill="#fff"/>
      </g>
      <g id="Grupo_50" data-name="Grupo 50">
        <path id="Trazado_410" data-name="Trazado 410" d="M102.2,102.361h2.465v9.555H102.2v-1.127a3.743,3.743,0,0,1-3.115,1.395,4.34,4.34,0,0,1-3.287-1.453,5.409,5.409,0,0,1,0-7.166,4.358,4.358,0,0,1,3.287-1.472,3.743,3.743,0,0,1,3.115,1.395Zm-2.656,7.472a2.564,2.564,0,0,0,1.892-.745,2.635,2.635,0,0,0,.764-1.949,2.564,2.564,0,0,0-.764-1.931,2.725,2.725,0,0,0-3.784,0,2.623,2.623,0,0,0-.746,1.931,2.7,2.7,0,0,0,.746,1.949A2.562,2.562,0,0,0,99.541,109.833Z" fill="#fff"/>
      </g>
      <g id="Grupo_51" data-name="Grupo 51">
        <path id="Trazado_411" data-name="Trazado 411" d="M112.556,102.361h2.638l-3.479,9.555c-.993,2.752-2.6,3.956-5.045,3.823v-2.294a2.337,2.337,0,0,0,2.5-1.834l-3.918-9.25h2.695l2.484,6.421Z" fill="#fff"/>
      </g>
      <g id="Grupo_52" data-name="Grupo 52">
        <path id="Trazado_412" data-name="Trazado 412" d="M117.679,108.151a2.435,2.435,0,0,0,2.694,1.8,2.538,2.538,0,0,0,2.141-.956l1.988,1.147a4.748,4.748,0,0,1-4.167,2.045,5.133,5.133,0,0,1-3.8-1.433,5.27,5.27,0,0,1-.019-7.205,4.824,4.824,0,0,1,3.631-1.453,4.5,4.5,0,0,1,3.459,1.453,5.019,5.019,0,0,1,1.376,3.593,6.488,6.488,0,0,1-.095,1.012Zm4.835-1.911a2.31,2.31,0,0,0-2.37-1.93,2.382,2.382,0,0,0-2.5,1.93Z" fill="#fff"/>
      </g>
      <g id="Grupo_53" data-name="Grupo 53">
        <path id="Trazado_413" data-name="Trazado 413" d="M128.4,104a2.93,2.93,0,0,1,2.9-1.834v2.752a2.869,2.869,0,0,0-2.026.458,2.193,2.193,0,0,0-.879,1.969v4.567h-2.465v-9.555H128.4Z" fill="#fff"/>
      </g>
      <g id="Grupo_54" data-name="Grupo 54">
        <path id="Trazado_414" data-name="Trazado 414" d="M136.313,106.126c1.4.286,3.211.955,3.192,3A2.634,2.634,0,0,1,138.4,111.4a4.622,4.622,0,0,1-2.733.784,4.02,4.02,0,0,1-4.014-2.274l2.141-1.2a1.779,1.779,0,0,0,1.873,1.242c.879,0,1.318-.268,1.318-.822,0-.516-.764-.8-1.739-1.051-1.414-.363-3.191-.956-3.191-2.943a2.66,2.66,0,0,1,1.032-2.217,4.359,4.359,0,0,1,6.23,1.2l-2.1,1.147a1.579,1.579,0,0,0-1.529-.975c-.631,0-1.109.306-1.109.784C134.574,105.591,135.339,105.877,136.313,106.126Z" fill="#fff"/>
      </g>
      <g id="Grupo_55" data-name="Grupo 55">
        <rect id="Rect치ngulo_257" data-name="Rect치ngulo 257" width="3.09" height="2.626" transform="translate(38.789 98.545)" fill="#fff"/>
      </g>
      <g id="Grupo_56" data-name="Grupo 56">
        <rect id="Rect치ngulo_258" data-name="Rect치ngulo 258" width="3.09" height="2.626" transform="translate(78.715 98.545)" fill="#fff"/>
      </g>
    </g>
    <g id="Grupo_58" data-name="Grupo 58">
      <path id="Trazado_415" data-name="Trazado 415" d="M33.206,102.2q-3.1-1.773-6.184-3.566a.525.525,0,0,0-.606.008q-3.084,1.8-6.182,3.567a.428.428,0,0,0-.248.432c.01.921,0,1.843,0,2.765s-.007,1.844.009,2.765a.488.488,0,0,0,.185.362c2.046,1.194,4.1,2.368,6.148,3.566a.707.707,0,0,0,.822-.025q3-1.752,6.028-3.471a.478.478,0,0,0,.285-.475q-.013-2.734,0-5.47A.458.458,0,0,0,33.206,102.2Zm-4.126,6.953c-.742.416-1.475.847-2.219,1.26a.353.353,0,0,1-.291-.011c-1.61-.916-3.214-1.842-4.824-2.759a.387.387,0,0,1-.221-.386c.007-1.256,0-2.511.013-3.767a.478.478,0,0,1,.191-.326c.254-.176.534-.317.849-.5,0,1.31.011,2.555-.007,3.8a.671.671,0,0,0,.4.69c1.179.65,2.342,1.33,3.5,2.009a.431.431,0,0,0,.5,0c.353-.217.725-.4,1.071-.634a.518.518,0,0,0,.209-.357q.027-1.275,0-2.551a.55.55,0,0,0-.233-.368c-.346-.229-.721-.413-1.07-.637a.455.455,0,0,1-.18-.3c-.023-.31-.008-.623-.008-1,.286.159.53.292.771.43.511.291,1.016.59,1.53.873a.407.407,0,0,1,.241.408q-.01,1.853,0,3.707A.413.413,0,0,1,29.08,109.156Zm2.621-1.514c-.268.138-.524.3-.833.48,0-.334,0-.614,0-.9,0-1.023-.006-2.045,0-3.068a.411.411,0,0,0-.226-.415q-1.846-1.055-3.681-2.127a.4.4,0,0,0-.473,0c-.36.225-.742.417-1.1.648a.472.472,0,0,0-.2.328q-.026,1.29,0,2.581a.506.506,0,0,0,.21.351c.354.234.734.428,1.1.652a.385.385,0,0,1,.183.243c.022.33.009.663.009,1.045-.328-.179-.62-.331-.905-.494-.484-.276-.969-.55-1.439-.847a.458.458,0,0,1-.192-.325q-.02-1.9,0-3.8a.462.462,0,0,1,.185-.33q1.105-.666,2.234-1.292a.393.393,0,0,1,.325.009q2.413,1.375,4.813,2.777a.486.486,0,0,1,.2.354c.014,1.245,0,2.49.011,3.736A.372.372,0,0,1,31.7,107.642Z" fill="#fff"/>
    </g>
  </g>
</svg>
