<svg xmlns="http://www.w3.org/2000/svg" width="43.453" height="43.453" viewBox="0 0 43.453 43.453">
  <g id="Grupo_1" data-name="Grupo 1" transform="translate(-536.114 -490.175)">
    <path id="Trazado_1" data-name="Trazado 1" d="M556.321,516.57a13.1,13.1,0,0,1-.98,1.212,13.844,13.844,0,0,0-.888,1.9,7.06,7.06,0,0,0-.056.776c-.037.2-.166.749-.166.749a2.059,2.059,0,0,0,.693-.49,2.065,2.065,0,0,1,.74-.323.444.444,0,0,0,.315-.444,2.928,2.928,0,0,1,.342-.944,3.645,3.645,0,0,0,.055-.934C556.358,518,556.349,516.477,556.321,516.57Z" fill="#fff"/>
    <path id="Trazado_2" data-name="Trazado 2" d="M554.817,509.16c-.17-.361.1-.321.16-.511s.281-.2.4-.22.23-.321.24-.351a10.35,10.35,0,0,0,.181-1.9c-.041-.681-.171-1.592-.171-1.592s-.981.24-1.072.43-1.241.531-1.362.681a8.045,8.045,0,0,0-.33,1.593,6.173,6.173,0,0,0-.11,1.793,4.768,4.768,0,0,0,1.422,1.352l.651-.721A.517.517,0,0,0,554.817,509.16Z" fill="#fff"/>
    <path id="Trazado_3" data-name="Trazado 3" d="M557.841,490.175A21.727,21.727,0,1,0,579.567,511.9,21.727,21.727,0,0,0,557.841,490.175ZM561.3,528.83a2.477,2.477,0,1,1,2.477-2.477A2.477,2.477,0,0,1,561.3,528.83Zm5.819-17.614c-.107.174-.457.779-.537.94s-.323.041-.323.041.027.228-.054.228-.107-.161-.228-.161a1.215,1.215,0,0,1-.47-.148c-.027-.04.013-.161.013-.161s-.269-.054-.175-.229.39-.013.39-.013a.723.723,0,0,0-.107-.323c-.108-.188-.538-.564-.471-1.1a1.93,1.93,0,0,0-.2-1.384c-.269-.417-1.344-2-1.344-2s-.2.968-.282,1.3-.726,1.639-.7,1.854-.188.43-.215.846a.749.749,0,0,1-.336.592,1.825,1.825,0,0,0-.228.483c-.108.323.175.323.215.43a7.018,7.018,0,0,1,.148.7,3.546,3.546,0,0,1-.027.86.745.745,0,0,1-.3.685c-.185.1-.415-.28-.426.245.066.273.23.033.11.437a2.017,2.017,0,0,0-.066.8c-.007.322-.219.014-.219.014a5.292,5.292,0,0,1-1.181,3.233,4.215,4.215,0,0,0-.711.657,4.068,4.068,0,0,1-.657.991c-.484.528-.8.431-.98.614s-.431.507-.582.658-.98,1.26-1.217,1.443-2.725,1.724-2.855,1.767-.8.387-.775.668.625.1.625.1.032.022.032.216-.291.3-.377.323a3.857,3.857,0,0,1-.56.076c-.129,0,.043.086.032.215a.983.983,0,0,1-.2.355,1.307,1.307,0,0,1,.216.593.793.793,0,0,1-.313.528,1.76,1.76,0,0,0-.527.194c-.033.064-.216.118-.216.064s-.151-.14-.205-.118-.15.118-.215.075-.032-.151-.043-.247a4,4,0,0,0-.97-.83c-.107,0-.237-.162-.474.032s-.237-.118-.237-.118.184-.076.184-.237-.044-.226-.108-.226-.216.129-.27.129-.15-.194-.15-.194a.585.585,0,0,0,.15-.334c0-.172-.032-.377.162-.485a1.578,1.578,0,0,0,.582-.549c.086-.194.258-.194.431-.259a12.181,12.181,0,0,0,2.111-1.648,4.47,4.47,0,0,1-.064-1.152c0-.205-.324-.1-.388-.345a3.779,3.779,0,0,1,.01-.948.4.4,0,0,0-.053-.312,1.361,1.361,0,0,1-.194-.959,2.977,2.977,0,0,1,.517-1.616c.377-1.228.463-2.7.883-3.673a2.661,2.661,0,0,1,.313-1.261,8.08,8.08,0,0,0,.517-1.346,8.006,8.006,0,0,1,.56-1.347c.043-.021-.593-.1-.722-.345s-.065.464-.065.464-.043.549-.215.592-.312-.215-.334-.258-.129.237-.355.226a.272.272,0,0,1-.259-.226.9.9,0,0,1-.356-.108c-.118-.086-.667-.2-.689-.593a7.322,7.322,0,0,1,.215-1.163c0-.162-.2-2.251-.237-2.338a14.534,14.534,0,0,1,0-1.82A3.871,3.871,0,0,1,552,503.98c.108-.076,1.185-.894,1.185-.894a3.74,3.74,0,0,0,.916-.625,8.575,8.575,0,0,1,1.217-.969,6.589,6.589,0,0,1,1-.83c.172-.021.926-.054,1.023-.183a9.57,9.57,0,0,1,1.26-.485,2.822,2.822,0,0,1,.872-.334,1.416,1.416,0,0,0-.094-.322,4.786,4.786,0,0,1-.5-1.9,2.942,2.942,0,0,1,.645-1.921,1.534,1.534,0,0,1,1.116-.565,4.5,4.5,0,0,1,1.41.094,4.194,4.194,0,0,1,1.371.672c.107.121.5.376.6.726a1.759,1.759,0,0,1,.04.725s-.323.256-.309.4a2.791,2.791,0,0,1-.188.766,2.172,2.172,0,0,0-.054.672c-.013.336-.255.524-.269.941s-.161.47-.161.47a2.965,2.965,0,0,0,.645.443,2.028,2.028,0,0,1,1.2.323c.295.309.47.363.457.9a3.078,3.078,0,0,1-.43,1.747c-.43.752.322,1.733.336,1.975s.927,3.225.927,3.225a4.047,4.047,0,0,0,.43.954C566.78,510.073,567.224,511.041,567.116,511.216Z" fill="#fff"/>
  </g>
</svg>
