<svg xmlns="http://www.w3.org/2000/svg" width="5.317" height="11.427" viewBox="0 0 5.317 11.427">
  <g id="Grupo_4" data-name="Grupo 4" transform="translate(-25.679 -2236.704)">
    <path id="Trazado_14" data-name="Trazado 14" d="M27.084,2248.131c0-.05.01-.1.01-.151v-5.551H25.679v-1.964h1.4c0-.074.009-.133.01-.192.009-.517,0-1.035.027-1.552a2.389,2.389,0,0,1,.333-1.172,1.68,1.68,0,0,1,1.387-.781c.7-.052,1.415-.045,2.136-.064v1.982c-.072,0-.143,0-.213,0-.36.009-.721,0-1.078.035a.431.431,0,0,0-.438.483c-.013.409,0,.819,0,1.251H31l-.206,1.962H29.248c-.006.067-.014.115-.014.163q0,2.707,0,5.417c0,.044.008.088.012.133Z" fill="#fff"/>
  </g>
</svg>
