<svg xmlns="http://www.w3.org/2000/svg" width="13.481" height="13.678" viewBox="0 0 13.481 13.678">
  <g id="Grupo_58" data-name="Grupo 58" transform="translate(-19.986 -98.544)">
    <path id="Trazado_415" data-name="Trazado 415" d="M33.206,102.2q-3.1-1.773-6.184-3.566a.525.525,0,0,0-.606.008q-3.084,1.8-6.182,3.567a.428.428,0,0,0-.248.432c.01.921,0,1.843,0,2.765s-.007,1.844.009,2.765a.488.488,0,0,0,.185.362c2.046,1.194,4.1,2.368,6.148,3.566a.707.707,0,0,0,.822-.025q3-1.752,6.028-3.471a.478.478,0,0,0,.285-.475q-.013-2.734,0-5.47A.458.458,0,0,0,33.206,102.2Zm-4.126,6.953c-.742.416-1.475.847-2.219,1.26a.353.353,0,0,1-.291-.011c-1.61-.916-3.214-1.842-4.824-2.759a.387.387,0,0,1-.221-.386c.007-1.256,0-2.511.013-3.767a.478.478,0,0,1,.191-.326c.254-.176.534-.317.849-.5,0,1.31.011,2.555-.007,3.8a.671.671,0,0,0,.4.69c1.179.65,2.342,1.33,3.5,2.009a.431.431,0,0,0,.5,0c.353-.217.725-.4,1.071-.634a.518.518,0,0,0,.209-.357q.027-1.275,0-2.551a.55.55,0,0,0-.233-.368c-.346-.229-.721-.413-1.07-.637a.455.455,0,0,1-.18-.3c-.023-.31-.008-.623-.008-1,.286.159.53.292.771.43.511.291,1.016.59,1.53.873a.407.407,0,0,1,.241.408q-.01,1.853,0,3.707A.413.413,0,0,1,29.08,109.156Zm2.621-1.514c-.268.138-.524.3-.833.48,0-.334,0-.614,0-.9,0-1.023-.006-2.045,0-3.068a.411.411,0,0,0-.226-.415q-1.846-1.055-3.681-2.127a.4.4,0,0,0-.473,0c-.36.225-.742.417-1.1.648a.472.472,0,0,0-.2.328q-.026,1.29,0,2.581a.506.506,0,0,0,.21.351c.354.234.734.428,1.1.652a.385.385,0,0,1,.183.243c.022.33.009.663.009,1.045-.328-.179-.62-.331-.905-.494-.484-.276-.969-.55-1.439-.847a.458.458,0,0,1-.192-.325q-.02-1.9,0-3.8a.462.462,0,0,1,.185-.33q1.105-.666,2.234-1.292a.393.393,0,0,1,.325.009q2.413,1.375,4.813,2.777a.486.486,0,0,1,.2.354c.014,1.245,0,2.49.011,3.736A.372.372,0,0,1,31.7,107.642Z" fill="#000000"/>
  </g>
</svg>
