<svg xmlns="http://www.w3.org/2000/svg" width="10.101" height="10.1" viewBox="0 0 10.101 10.1">
  <g id="Grupo_6" data-name="Grupo 6" transform="translate(-25.679 -2257.869)">
    <path id="Trazado_15" data-name="Trazado 15" d="M30.73,2257.874c.581,0,1.161-.011,1.742,0a4.481,4.481,0,0,1,1.535.243,2.535,2.535,0,0,1,1.516,1.523,5.158,5.158,0,0,1,.25,1.825c.008,1.064.013,2.129-.007,3.193a4.043,4.043,0,0,1-.333,1.743,2.552,2.552,0,0,1-1.576,1.358,5.524,5.524,0,0,1-1.683.2c-1.064.006-2.129.013-3.193-.007a4.039,4.039,0,0,1-1.755-.338,2.555,2.555,0,0,1-1.342-1.559,5.461,5.461,0,0,1-.2-1.682c0-1.1-.009-2.205.01-3.307a3.76,3.76,0,0,1,.338-1.665,2.54,2.54,0,0,1,1.565-1.334,5.837,5.837,0,0,1,1.746-.2c.463,0,.925,0,1.388,0Zm4.152,5.021c-.02-.726-.034-1.475-.066-2.223a2.022,2.022,0,0,0-.326-1.059,1.787,1.787,0,0,0-1.456-.78,40.173,40.173,0,0,0-4.6,0,1.994,1.994,0,0,0-.944.283,1.79,1.79,0,0,0-.844,1.523,39.97,39.97,0,0,0,0,4.566,1.943,1.943,0,0,0,.391,1.111,1.824,1.824,0,0,0,1.443.688c.95.036,1.9.043,2.851.049a11.451,11.451,0,0,0,1.976-.093,1.742,1.742,0,0,0,1.062-.577,2,2,0,0,0,.454-1.281C34.85,2264.373,34.862,2263.645,34.882,2262.9Z" fill="#fff"/>
    <path id="Trazado_16" data-name="Trazado 16" d="M28.136,2262.91a2.592,2.592,0,1,1,2.576,2.6A2.593,2.593,0,0,1,28.136,2262.91Zm4.264,0a1.675,1.675,0,1,0-3.35.006,1.675,1.675,0,1,0,3.35-.006Z" fill="#fff"/>
    <path id="Trazado_17" data-name="Trazado 17" d="M34.024,2260.218a.606.606,0,0,1-.6.614.625.625,0,0,1-.614-.6.609.609,0,0,1,.607-.612A.588.588,0,0,1,34.024,2260.218Z" fill="#fff"/>
  </g>
</svg>
