<svg width="85" height="9" viewBox="0 0 85 9" fill="none" xmlns="http://www.w3.org/2000/svg">
<g clip-path="url(#clip0_29_17)">
<g clip-path="url(#clip1_29_17)">
<path d="M2.66442 3.66311C3.74327 3.66311 4.02115 3.0796 4.02115 2.57714C4.02115 2.07468 3.74327 1.49118 2.59904 1.49118H1.63462V3.66311H2.66442ZM2.53365 4.94357H1.63462V8.10421H0V0.145877H2.99135C3.32472 0.111729 3.66162 0.14759 3.98009 0.251126C4.29856 0.354662 4.59147 0.523551 4.83974 0.746795C5.08802 0.970039 5.28608 1.24263 5.42105 1.54682C5.55601 1.85101 5.62485 2.17998 5.62308 2.51231C5.64062 2.99022 5.50652 3.46155 5.23966 3.85991C4.97281 4.25828 4.58665 4.56359 4.13558 4.73286L5.99904 8.10421H4.08654L2.53365 4.94357Z" fill="white"/>
<path d="M12.1779 6.66167H8.6798V4.76528H12.0798V3.35515H8.6798V1.55601H12.1779V0.145878H7.07788V8.0718H12.1779V6.66167Z" fill="white"/>
<path d="M21.8385 0.145878H20.024L17.7029 5.54329L15.3817 0.145878H13.5673V8.0718H15.1038V2.8851H15.1202L17.2615 8.0718H18.1442L20.2856 2.78785H20.3019V8.0718H21.8385V0.145878Z" fill="white"/>
<path d="M27.1346 1.41013C25.6471 1.41013 24.9115 2.6906 24.9115 4.10073C24.9115 5.51086 25.6471 6.80754 27.1346 6.80754C28.6221 6.80754 29.4231 5.52707 29.4231 4.10073C29.4231 2.67439 28.6221 1.41013 27.1346 1.41013ZM27.1346 -1.37058e-06C27.6696 -0.00551543 28.1999 0.0984277 28.6925 0.305333C29.1851 0.512238 29.6294 0.817658 29.9975 1.20251C30.3657 1.58736 30.6499 2.04337 30.8323 2.54204C31.0147 3.04071 31.0914 3.57133 31.0577 4.10073C31.1073 4.63704 31.0436 5.17772 30.8707 5.68825C30.6977 6.19877 30.4193 6.66793 30.0532 7.06577C29.6872 7.46361 29.2414 7.78139 28.7445 7.99882C28.2476 8.21625 27.7104 8.32854 27.1673 8.32854C26.6242 8.32854 26.087 8.21625 25.5901 7.99882C25.0932 7.78139 24.6475 7.46361 24.2814 7.06577C23.9153 6.66793 23.6369 6.19877 23.4639 5.68825C23.291 5.17772 23.2273 4.63704 23.2769 4.10073C23.2435 3.57679 23.3184 3.0516 23.4968 2.55733C23.6753 2.06305 23.9536 1.6101 24.3147 1.22621C24.6759 0.842307 25.1122 0.535544 25.5971 0.324699C26.082 0.113855 26.6052 0.00336591 27.1346 -1.37058e-06" fill="white"/>
<path d="M37.0894 6.59683H34.0327V0.145878H32.4308V8.0718H37.0894V6.59683Z" fill="white"/>
<path d="M40.0154 0.145878H38.4298V8.0718H40.0154V0.145878Z" fill="white"/>
<path d="M48.3683 0.145878H46.8317V5.46224H46.8154L43.5788 0.145878H41.8625V8.0718H43.399V2.65818H43.4154L46.7173 8.0718H48.3683V0.145878Z" fill="white"/>
<path d="M53.6644 1.41013C52.1769 1.41013 51.425 2.6906 51.425 4.10073C51.425 5.51087 52.1769 6.80754 53.6644 6.80754C55.1519 6.80754 55.8875 5.52707 55.8875 4.10073C55.8875 2.67439 55.1519 1.41013 53.6644 1.41013ZM53.6644 -4.2242e-09C54.1966 -0.0010492 54.7234 0.106186 55.2121 0.315073C55.7008 0.523959 56.1411 0.830054 56.5058 1.21442C56.8704 1.59879 57.1517 2.05326 57.3321 2.54972C57.5126 3.04618 57.5884 3.57407 57.5548 4.10073C57.6044 4.63704 57.5408 5.17772 57.3678 5.68825C57.1949 6.19877 56.9165 6.66794 56.5504 7.06578C56.1843 7.46362 55.7385 7.78139 55.2416 7.99882C54.7447 8.21625 54.2076 8.32854 53.6644 8.32854C53.1213 8.32854 52.5841 8.21625 52.0872 7.99882C51.5903 7.78139 51.1446 7.46362 50.7785 7.06578C50.4124 6.66794 50.134 6.19877 49.961 5.68825C49.7881 5.17772 49.7244 4.63704 49.774 4.10073C49.7405 3.57407 49.8163 3.04618 49.9967 2.54972C50.1772 2.05326 50.4584 1.59879 50.823 1.21442C51.1877 0.830054 51.628 0.523959 52.1167 0.315073C52.6055 0.106186 53.1322 -0.0010492 53.6644 -4.2242e-09" fill="white"/>
<path d="M59.549 6.48337C59.6671 6.48337 59.784 6.50643 59.8931 6.55123C60.0022 6.59603 60.1013 6.6617 60.1848 6.74448C60.2682 6.82726 60.3345 6.92553 60.3796 7.03369C60.4248 7.14184 60.4481 7.25777 60.4481 7.37484C60.4481 7.4919 60.4248 7.60783 60.3796 7.71598C60.3345 7.82414 60.2682 7.92242 60.1848 8.0052C60.1013 8.08798 60.0022 8.15364 59.8931 8.19844C59.784 8.24324 59.6671 8.2663 59.549 8.2663C59.3106 8.2663 59.0819 8.17238 58.9133 8.0052C58.7447 7.83801 58.65 7.61127 58.65 7.37484C58.65 7.13841 58.7447 6.91166 58.9133 6.74448C59.0819 6.57729 59.3106 6.48337 59.549 6.48337" fill="white"/>
<path d="M65.3846 1.41013C63.8971 1.41013 63.1615 2.6906 63.1615 4.10073C63.1615 5.51087 63.9625 6.80754 65.3846 6.80754C66.8067 6.80754 67.624 5.52707 67.624 4.10073C67.624 2.67439 67.0192 1.41013 65.3846 1.41013ZM65.3846 -4.2242e-09C65.9168 -0.0010492 66.4436 0.106186 66.9323 0.315073C67.421 0.523959 67.8613 0.830054 68.226 1.21442C68.5906 1.59879 68.8719 2.05326 69.0523 2.54972C69.2327 3.04618 69.3085 3.57407 69.275 4.10073C69.3246 4.63704 69.2609 5.17772 69.088 5.68825C68.915 6.19877 68.6366 6.66794 68.2705 7.06578C67.9045 7.46362 67.4587 7.78139 66.9618 7.99882C66.4649 8.21625 65.9277 8.32854 65.3846 8.32854C64.8415 8.32854 64.3043 8.21625 63.8074 7.99882C63.3105 7.78139 62.8648 7.46362 62.4987 7.06578C62.1326 6.66794 61.8542 6.19877 61.6812 5.68825C61.5083 5.17772 61.4446 4.63704 61.4942 4.10073C61.4607 3.57407 61.5365 3.04618 61.7169 2.54972C61.8973 2.05326 62.1786 1.59879 62.5432 1.21442C62.9079 0.830054 63.3482 0.523959 63.8369 0.315073C64.3257 0.106186 64.8524 -0.0010492 65.3846 -4.2242e-09" fill="white"/>
<path d="M73.4106 3.66311C74.4894 3.66311 74.7673 3.0796 74.7673 2.57714C74.7673 2.07468 74.4894 1.49118 73.3452 1.49118H72.3481V3.66311H73.4106ZM73.2798 4.94357H72.3481V8.10421H70.7135V0.145877H73.7048C74.0382 0.111729 74.3751 0.14759 74.6935 0.251126C75.012 0.354662 75.3049 0.523551 75.5532 0.746795C75.8015 0.970039 75.9995 1.24263 76.1345 1.54682C76.2695 1.85101 76.3383 2.17998 76.3365 2.51231C76.3541 2.99022 76.22 3.46155 75.9531 3.85991C75.6863 4.25828 75.3001 4.56359 74.849 4.73286L76.8269 8.10421H74.8327L73.2798 4.94357Z" fill="white"/>
<path d="M81.5836 3.80898H85.2615C85.2615 6.74271 83.6269 8.21767 81.3711 8.21767C80.8417 8.20954 80.3193 8.09609 79.8349 7.88406C79.3505 7.67203 78.914 7.36572 78.5512 6.9833C78.1884 6.60088 77.9067 6.15013 77.7228 5.65776C77.5389 5.16539 77.4566 4.64143 77.4808 4.11694C77.4567 3.59166 77.5389 3.06691 77.7225 2.57363C77.9062 2.08036 78.1877 1.62855 78.5503 1.24485C78.9128 0.861142 79.3492 0.553314 79.8337 0.339516C80.3182 0.125717 80.841 0.0102761 81.3711 2.19659e-07C82.1706 -0.0723034 82.9705 0.134205 83.6329 0.583933C84.2954 1.03366 84.7788 1.69844 85 2.46368L83.3654 2.57714C83.2097 2.1915 82.9296 1.86785 82.5688 1.65673C82.208 1.4456 81.7869 1.35889 81.3711 1.41013C80.1125 1.41013 79.1317 2.41506 79.1317 4.11694C79.1027 4.44665 79.1406 4.77877 79.2431 5.09374C79.3455 5.40871 79.5106 5.70016 79.7284 5.9509C79.9462 6.20165 80.2125 6.40662 80.5115 6.55374C80.8104 6.70087 81.1361 6.78716 81.4692 6.80754C81.9477 6.82645 82.4169 6.67259 82.7896 6.37452C83.1624 6.07644 83.4134 5.65439 83.4961 5.1867H81.5836V3.80898Z" fill="white"/>
</g>
</g>
<defs>
<clipPath id="clip0_29_17">
<rect width="85" height="8.10421" fill="white"/>
</clipPath>
<clipPath id="clip1_29_17">
<rect width="85.2615" height="8.21767" fill="white"/>
</clipPath>
</defs>
</svg>
