<svg xmlns="http://www.w3.org/2000/svg" width="75.536" height="30.466" viewBox="0 0 75.536 30.466">
  <g id="Grupo_2" data-name="Grupo 2" transform="translate(-690.984 -496.654)">
    <path id="Trazado_5" data-name="Trazado 5" d="M728.752,527.1q-18.434,0-36.866.021c-.751,0-.9-.151-.9-.9q.048-14.332,0-28.665c0-.75.151-.9.9-.9q36.866.037,73.732,0c.75,0,.9.15.9.9q-.048,14.333,0,28.665c0,.75-.151.9-.9.9Q747.184,527.075,728.752,527.1Zm-28.725-1.241c.887.24,1.346.219,1.285-.838a1.819,1.819,0,0,1,1.941-1.981,1.8,1.8,0,0,1,1.918,1.878c-.114,1.112.41,1.069,1.189,1.069q29-.02,57.989.012c1.035,0,1.335-.253,1.33-1.312q-.066-12.819,0-25.64c.008-1.194-.264-1.531-1.5-1.529q-34.591.06-69.185.029c-3.15,0-3.15,0-3.15,3.09,0,7.96.031,15.92-.032,23.88-.01,1.257.361,1.6,1.546,1.481a27.436,27.436,0,0,1,3.142-.016c.458.008.707-.052.866-.605.285-.994.771-1.928,1.145-2.9.1-.268.377-.61-.127-.82-1.317-.549-1.022-1.458-.613-2.478a26.718,26.718,0,0,0,1.6-4.3c-.836.364-1.483.635-2.121.927-.855.392-1.716.471-2.135-.511-.4-.931.124-1.577,1.029-1.95.967-.4,1.918-.838,2.875-1.26a33.627,33.627,0,0,0-5.193-.187c-.865.033-1.141-.2-1.129-1.1q.075-5.655,0-11.312c-.012-.911.191-1.2,1.161-1.2q34.906.044,69.814.005c.858,0,1.142.2,1.13,1.1-.051,3.687-.064,7.375.005,11.06.02,1.113-.232,1.459-1.416,1.457q-26.982-.063-53.964-.029H707.99c.9.824.628,1.593.263,2.382-.262.567-.475,1.157-.705,1.738-.339.858-.951,1.351-1.851.979-.876-.363-1.027-1.093-.656-1.983.148-.354.579-.752-.011-1.421Zm14.358-23.406a8.276,8.276,0,0,0-3.4.581c-.608.27-1.677.519-1.365,1.33.3.789,1.326.44,2.025.232a9.6,9.6,0,0,1,2.246-.742c.46-.021,1.05-.055,1.16.493.127.624-.431.828-.944.929-1.23.242-2.468.448-3.7.7a4.9,4.9,0,0,0-2.884,1.656,1.412,1.412,0,0,0,.542,2.36,4.683,4.683,0,0,0,2.962.226,8.605,8.605,0,0,1,3.587-.073,1.5,1.5,0,0,0,1.847-1.105,24.575,24.575,0,0,1,.976-2.44C719.047,503.132,717.908,502.559,714.385,502.452Zm36.521,4.285c.878,0,1.762.062,2.634-.017,1.038-.094,1.4-.8,1.268-1.769a2.486,2.486,0,0,0-1.29-1.9c-3.156-1.808-8.584.439-9.5,3.929a2.165,2.165,0,0,0,.993,2.589c1.84,1.212,6.266.858,7.855-.619.622-.578.389-.95-.284-1.158a2.745,2.745,0,0,0-2.033.433,3.539,3.539,0,0,1-2.53.468c-.5-.137-.964-.378-.945-1.007.019-.6.5-.764.955-.807C748.982,506.792,749.945,506.779,750.906,506.737Zm-29.3-3.846c-1.335-.145-2.06.223-2.445,1.254-.552,1.483-1.177,2.939-1.744,4.417-.187.485-.61,1.053-.13,1.51a1.789,1.789,0,0,0,1.9.1A1.826,1.826,0,0,0,720.244,509c.35-.891.69-1.788,1.075-2.665a2.747,2.747,0,0,1,2.182-1.854c1.1-.143,1.6.4,1.279,1.459s-.752,2.119-1.141,3.174c-.146.395-.353.792.125,1.11a2.2,2.2,0,0,0,2.575-.611c.712-1.642,1.349-3.317,1.977-4.994.331-.881-.106-1.432-.92-1.751a4.145,4.145,0,0,0-2.229-.137A9.643,9.643,0,0,1,721.6,502.891Zm9.7,7.409c1.913,0,3.79-.2,5.25-1.61,1.288-1.244.951-2.48-.762-2.929-.766-.2-1.562-.282-2.335-.459-.378-.086-.943-.06-.913-.646s.574-.529.969-.552a6.83,6.83,0,0,1,2.229.282,2.032,2.032,0,0,0,1.585-.086c.329-.18.727-.331.7-.781-.018-.386-.364-.55-.686-.644a8.8,8.8,0,0,0-7.358.835,1.807,1.807,0,0,0-1,1.88c.135.771.8,1.049,1.45,1.212.848.213,1.724.311,2.579.5.311.067.72.154.74.562s-.326.536-.656.65a3.711,3.711,0,0,1-2.923-.151,2.167,2.167,0,0,0-1.684-.3c-.424.15-.936.318-1,.845-.068.571.435.748.858.932A6.868,6.868,0,0,0,731.3,510.3Zm13.314-10.223a3.861,3.861,0,0,0-3.246,1.332,4.888,4.888,0,0,1-2.012,1.618c-.53.2-.859.656-.214,1.119.675.484.54,1.053.3,1.663-.427,1.087-.878,2.165-1.289,3.257-.286.762-.054,1.182.826,1.238,1.469.094,1.946-.248,2.585-1.627.833-1.8.827-4.216,3.43-4.79a.471.471,0,0,0,.141-.881c-1.318-.818-.171-.9.322-1.171.476-.258,1.127-.457,1.009-1.108-.121-.675-.837-.552-1.35-.646A2.9,2.9,0,0,0,744.613,500.077Zm-47.3,10.2v-.009c.377,0,.755.023,1.13-.006a1.2,1.2,0,0,0,1.152-.816c.205-.6-.2-.821-.635-1.034-.547-.267-.494-.735-.333-1.188.5-1.4.8-2.953,2.636-3.332.376-.077.936-.64.509-.878a1.981,1.981,0,0,1-1.013-2.139c0-.112-.19-.266-.325-.344a2.42,2.42,0,0,0-2.685.715,3.3,3.3,0,0,1-1.722,1.55c-.4.155-1.018.587-.484,1,1.05.811.509,1.617.228,2.451-.267.79-.633,1.548-.865,2.347-.282.972.2,1.528,1.154,1.671A8.441,8.441,0,0,0,697.309,510.272Zm3.209,3.419c-.581,2.379-.574,2.358,1.726,3.176.512.181.732.159.925-.381.336-.943.8-1.842,1.119-2.79.238-.7.534-.757,1.2-.485.681.28.819.57.465,1.192a6.716,6.716,0,0,0-.4,1.051.7.7,0,0,0,.432,1.013c.459.168.673-.148.88-.493,1.624-2.707,1.477-3.173-1.4-4.362-.425-.175-.856-.337-1.281-.513a1.516,1.516,0,0,0-1.222-.013q-3.334,1.448-6.662,2.915c-.437.193-.878.466-.617,1.035.276.6.761.5,1.274.26C698.1,514.757,699.272,514.249,700.518,513.691Zm55.151-3.316a1.908,1.908,0,0,0,2.075-1.463c.211-.587.506-1.148.683-1.745a3.009,3.009,0,0,1,2.64-2.324,1.743,1.743,0,0,0,1.45-.858c.328-.642.027-1.308-.532-1.2-1.44.273-2.824-.267-4.23-.075a1.825,1.825,0,0,0-1.478,1.217c-.649,1.626-1.276,3.261-1.863,4.91C753.963,510.1,754.2,510.385,755.669,510.375Zm-50.9-7.715c-.787-.037-1.621.034-1.995.785a47.194,47.194,0,0,0-2.4,6.042.6.6,0,0,0,.327.739.822.822,0,0,0,.844.063c.337-.224-.006-.522-.033-.782a1.752,1.752,0,0,1,2.291-2.065c.667.171.816-.121.962-.586a2.668,2.668,0,0,1,2.36-1.959,2.045,2.045,0,0,0,1.665-.984c.369-.7.1-1.292-.664-1.148A11.694,11.694,0,0,1,704.769,502.66Zm-6.193,23.791a.991.991,0,0,0,.826-.733c1-2.477,1.982-4.958,3.024-7.416.238-.562.044-.711-.412-.908-.5-.218-.772-.117-.94.4-.14.436-.34.851-.513,1.276-.817,2.009-1.644,4.013-2.444,6.029C697.892,525.669,697.756,526.265,698.576,526.451Zm.1-5.376a.678.678,0,0,0,.664-.391c.475-1.1.925-2.213,1.388-3.32.2-.484-.187-.528-.475-.678-.381-.2-.7-.271-.9.223-.419,1.035-.867,2.059-1.252,3.107C697.9,520.572,698.082,520.991,698.672,521.075Zm5.964,4.14c.01-.93-.409-1.528-1.3-1.593a1.408,1.408,0,1,0,1.3,1.593Zm-.1-16.072c-.1-.658-.413-1.18-1.17-1.216a1.133,1.133,0,0,0-1.317,1.177,1.111,1.111,0,0,0,1.122,1.252C703.987,510.425,704.376,509.909,704.537,509.143Z" fill="#f6f7f8"/>
    <path id="Trazado_6" data-name="Trazado 6" d="M722.932,517.628a19.51,19.51,0,0,1-1.862,5.066,1.62,1.62,0,0,1-2.232.515c-.87-.388-.609-1.167-.346-1.849.241-.622.555-1.218.771-1.847.211-.611.583-1.328-.288-1.734a1.4,1.4,0,0,0-1.983.771,29.74,29.74,0,0,0-1.038,3.077c-.484,1.468-1.049,1.816-2.581,1.751-.955-.041-1.169-.5-.894-1.31.309-.908.658-1.8.984-2.7.188-.518.39-1.049-.119-1.5-.553-.494-1.116-.185-1.635.056a2.444,2.444,0,0,0-1.157,1.424c-.393.965-.8,1.927-1.242,2.868a2,2,0,0,1-.7.856,2.156,2.156,0,0,1-2.373.041c-.728-.508-.028-1.148.153-1.674.528-1.537,1.147-3.043,1.73-4.561.172-.447.43-.99.942-.826,1.165.373,2.2-.228,3.3-.263a7.823,7.823,0,0,1,3.7.4,3.058,3.058,0,0,0,2.211-.058,6.993,6.993,0,0,1,3.216-.342C722.332,515.913,723.05,516.225,722.932,517.628Z" fill="#f6f7f8"/>
    <path id="Trazado_7" data-name="Trazado 7" d="M747.416,523.368c-.962.124-1.46-.551-1.905-1.373-.893-1.651-1.941-1.689-2.89-.055a2.322,2.322,0,0,1-2.4,1.42c-.626-.069-.9-.367-.644-1.019q1.509-3.843,3-7.691a1.905,1.905,0,0,1,2.253-1.152c.642.063.887.4.642,1.034-.3.777-.6,1.555-.886,2.338-.1.267-.255.577.024.813.264.224.563.068.82-.057.713-.347,1.432-.685,2.118-1.079a4.328,4.328,0,0,1,2.659-.526.748.748,0,0,1,.53.249c.166.3-.148.421-.34.55-.661.439-1.332.863-2,1.3a1.328,1.328,0,0,0-.5,2.021,13.546,13.546,0,0,1,.776,1.57C749.207,522.958,748.917,523.364,747.416,523.368Z" fill="#f6f7f8"/>
    <path id="Trazado_8" data-name="Trazado 8" d="M729.622,515.526c3.875.122,4.579.841,3.107,4.18q-.53,1.2-.976,2.437a1.514,1.514,0,0,1-1.876,1.065,8.093,8.093,0,0,0-3.585.093,5.119,5.119,0,0,1-2.491-.077c-1.547-.437-1.852-1.686-.7-2.833a6.6,6.6,0,0,1,3.62-1.578c.943-.183,1.894-.327,2.837-.508.444-.085.826-.324.784-.823-.047-.566-.558-.55-.964-.56a3.594,3.594,0,0,0-1.8.483,3.523,3.523,0,0,1-1.932.429c-.34-.021-.723-.025-.827-.411s.2-.616.482-.8A7.655,7.655,0,0,1,729.622,515.526Zm-2.554,6.3a3.77,3.77,0,0,0,2-.974.628.628,0,0,0,.208-.772c-.126-.265-.391-.282-.642-.266a6.078,6.078,0,0,0-2.153.525c-.407.184-.91.4-.767.971S726.387,521.814,727.068,521.824Z" fill="#f6f7f8"/>
    <path id="Trazado_9" data-name="Trazado 9" d="M753.552,523.368c-2.468,0-2.908-.662-2.009-2.9.281-.7.581-1.387.8-2.1.132-.422.244-.9-.268-1.229-.827-.534-.426-1.02.176-1.278a3.538,3.538,0,0,0,1.781-1.653,2.494,2.494,0,0,1,2.62-.634c.135.078.33.239.322.348a1.9,1.9,0,0,0,1.035,2.113c.523.292-.175.84-.559.934a3.289,3.289,0,0,0-2.356,2.636c-.274.877-.614,1.548.54,2.153.693.363.231,1.005-.328,1.354A3.389,3.389,0,0,1,753.552,523.368Z" fill="#f6f7f8"/>
    <path id="Trazado_10" data-name="Trazado 10" d="M733.666,523.447c-1.123-.016-1.41-.343-1.045-1.366.615-1.724,1.277-3.433,1.964-5.13a1.867,1.867,0,0,1,1.751-1.2c1.281-.071,2.531.406,3.846.088.546-.132.834.43.683,1.043a1.018,1.018,0,0,1-.836.841c-2.508.152-3.2,2.01-3.9,3.945C735.567,523.228,735.148,523.468,733.666,523.447Z" fill="#f6f7f8"/>
    <path id="Trazado_11" data-name="Trazado 11" d="M711.564,508.77c-.542-.053-1.084,0-1.183-.594-.084-.5.369-.717.737-.888a7.005,7.005,0,0,1,2.16-.546.654.654,0,0,1,.746.325c.128.3-.093.557-.311.75A3.642,3.642,0,0,1,711.564,508.77Z" fill="#f6f7f8"/>
    <path id="Trazado_12" data-name="Trazado 12" d="M749.729,505.474c-.468-.109-1.376.292-1.45-.4-.089-.816.877-.78,1.489-.945a1.47,1.47,0,0,1,.366-.074c.654,0,1.563-.1,1.608.717s-.849.679-1.451.7C750.125,505.479,749.959,505.474,749.729,505.474Z" fill="#f6f7f8"/>
  </g>
</svg>
