<svg xmlns="http://www.w3.org/2000/svg" width="43.239" height="30.497" viewBox="0 0 43.239 30.497">
  <path id="Trazado_4" data-name="Trazado 4" d="M635.933,527.15c-3.055-.077-6.11-.126-9.164-.242-1.918-.073-3.834-.222-5.747-.386a8.493,8.493,0,0,1-3.2-.73,5.373,5.373,0,0,1-2.909-3.67,27.527,27.527,0,0,1-.6-4.3,62.473,62.473,0,0,1-.224-6.949c.065-2.084.189-4.168.343-6.248a14.037,14.037,0,0,1,.6-3.415,5.348,5.348,0,0,1,4.13-3.754,29.017,29.017,0,0,1,4.537-.494c5.385-.324,10.776-.342,16.167-.286,1.689.017,3.379.057,5.066.142q2.889.144,5.771.395a8.355,8.355,0,0,1,3.124.729,5.252,5.252,0,0,1,2.8,3.319,17.612,17.612,0,0,1,.674,4.8q.021,5.765,0,11.53a17.239,17.239,0,0,1-.678,4.9,5.207,5.207,0,0,1-4.153,3.774,27.367,27.367,0,0,1-4.761.5c-3.864.136-7.729.235-11.594.349-.058,0-.116,0-.174,0Zm-4.458-8.745,11.354-6.54-11.354-6.539Z" transform="translate(-614.068 -496.653)" fill="#fff"/>
</svg>
